# xmcd
#
# Track frame offsets: 
#        150
#        19504
#        34096
#        47664
#        62004
#        84380
#
# Disc length: 1449 seconds
#
# Revision: 0
# Processed by: cddbd v1.5.2PL0 Copyright (c) Steve Scherf et al.
# Submitted via: ExactAudioCopyFreeDBPlugin 1.0
#
DISCID=3e05a706
DTITLE=Dining Room Diplomats - Under My Sweater
DYEAR=2010
DGENRE=Blues Rock
TTITLE0=Gasoline
TTITLE1=Sunny Afternoon
TTITLE2=Lonely
TTITLE3=Robobaby
TTITLE4=Shift To First
TTITLE5=Sly Jim In ABM
EXTD=
EXTT0=
EXTT1=
EXTT2=
EXTT3=
EXTT4=
EXTT5=
PLAYORDER=
